<?xml version="1.0" standalone="no"?>
<!DOCTYPE svg PUBLIC "-//W3C//DTD SVG 20010904//EN"
 "http://www.w3.org/TR/2001/REC-SVG-20010904/DTD/svg10.dtd">
<svg version="1.0" xmlns="http://www.w3.org/2000/svg"
 width="1200.000000pt" height="1200.000000pt" viewBox="0 0 1200.000000 1200.000000"
 preserveAspectRatio="xMidYMid meet">
<metadata>
Created by potrace 1.11, written by Peter Selinger 2001-2013
</metadata>
<g transform="translate(0.000000,1200.000000) scale(0.100000,-0.100000)"
fill="#000000" stroke="none">
<path d="M3197 8824 c-1 -1 -47 -5 -102 -8 -127 -9 -201 -18 -265 -32 -14 -3
-39 -8 -57 -10 -53 -7 -264 -70 -364 -110 -215 -85 -456 -231 -639 -388 -58
-50 -283 -279 -315 -320 -16 -22 -41 -53 -55 -70 -47 -57 -161 -218 -173 -246
-4 -8 -21 -37 -38 -65 -49 -81 -144 -283 -178 -380 -18 -49 -39 -107 -47 -127
-7 -21 -11 -38 -8 -38 4 0 1 -7 -6 -15 -7 -8 -10 -15 -6 -15 3 0 1 -11 -4 -24
-11 -29 -58 -251 -66 -310 -37 -273 -36 -589 1 -826 3 -19 7 -51 10 -70 3 -19
12 -66 20 -105 68 -306 163 -548 318 -807 34 -57 65 -107 69 -113 5 -5 34 -44
65 -85 90 -120 149 -187 267 -306 94 -93 145 -139 257 -228 130 -105 392 -251
546 -307 32 -11 65 -23 73 -26 48 -19 279 -82 325 -88 17 -2 44 -6 60 -9 133
-22 230 -30 395 -30 139 0 304 9 332 18 7 3 37 7 67 11 30 3 111 19 180 36
150 36 142 34 161 42 8 4 49 18 90 33 84 29 281 121 344 161 114 73 252 169
311 218 57 47 296 286 335 334 19 24 40 49 45 55 9 9 120 158 143 192 17 25
33 50 39 64 4 8 13 21 20 28 7 7 13 20 13 28 0 8 3 14 8 14 4 0 12 10 18 23 6
12 26 54 46 92 20 39 44 88 54 110 10 22 22 43 27 46 5 3 7 8 6 10 -1 2 2 18
8 34 6 17 11 35 12 40 1 6 9 20 17 33 8 12 12 22 9 22 -2 0 5 24 16 53 12 28
22 59 24 67 2 8 15 56 29 105 25 89 34 126 41 175 2 14 10 70 19 125 25 163
30 240 30 430 -1 160 -6 259 -19 320 -2 11 -7 46 -10 78 -4 32 -8 66 -10 75
-2 9 -13 58 -24 107 -11 50 -27 115 -36 145 -9 30 -18 62 -20 70 -16 63 -83
234 -110 282 -9 15 -16 30 -15 33 1 15 -161 309 -179 325 -3 3 -24 32 -46 65
-22 33 -42 62 -45 65 -3 3 -32 39 -65 80 -33 41 -69 84 -80 96 -183 191 -212
219 -326 310 -41 32 -76 61 -79 64 -3 3 -43 30 -90 61 -316 207 -596 312 -975
365 -76 10 -390 25 -398 18z m343 -197 c14 -3 48 -9 75 -13 28 -4 57 -8 65 -9
148 -22 413 -110 548 -182 72 -38 135 -74 162 -92 14 -9 34 -22 45 -29 11 -7
35 -22 53 -33 17 -12 32 -25 32 -30 0 -5 5 -9 11 -9 19 0 169 -129 281 -242
59 -59 104 -108 101 -108 -4 0 0 -6 9 -12 12 -11 54 -60 132 -158 28 -35 133
-198 151 -235 11 -22 23 -42 26 -45 17 -13 129 -269 164 -375 20 -61 53 -177
59 -205 2 -14 7 -32 10 -40 3 -8 7 -28 10 -45 2 -16 9 -59 15 -95 17 -102 22
-149 26 -235 2 -44 5 -81 5 -82 1 -2 2 -51 1 -110 0 -138 -11 -296 -26 -372
-2 -12 -7 -42 -9 -65 -3 -22 -8 -52 -12 -66 -3 -14 -7 -36 -9 -50 -3 -14 -14
-56 -25 -95 -11 -38 -22 -77 -24 -86 -28 -115 -140 -369 -217 -496 -22 -35
-39 -67 -39 -72 0 -5 -3 -11 -8 -13 -4 -1 -34 -41 -67 -88 -32 -47 -69 -96
-81 -110 -12 -14 -54 -62 -92 -106 -39 -45 -99 -108 -133 -140 -34 -33 -72
-68 -83 -79 -12 -11 -50 -43 -86 -70 -35 -28 -76 -60 -90 -72 -14 -13 -30 -23
-37 -23 -6 0 -13 -4 -15 -8 -5 -13 -111 -82 -125 -82 -7 0 -13 -4 -13 -8 0
-23 -355 -179 -448 -198 -13 -3 -43 -11 -68 -20 -25 -8 -57 -17 -72 -19 -24
-3 -75 -13 -162 -30 -146 -29 -483 -24 -650 10 -14 3 -34 7 -45 9 -34 7 -100
20 -105 21 -3 1 -18 5 -35 9 -16 4 -66 20 -110 34 -44 14 -82 26 -85 27 -28 3
-249 107 -340 161 -65 38 -171 109 -199 133 -13 12 -27 21 -30 21 -3 0 -22 14
-41 31 -19 17 -60 52 -90 79 -87 75 -279 276 -280 291 0 3 -14 21 -31 40 -40
45 -149 204 -149 218 0 6 -4 11 -9 11 -9 0 -160 295 -165 321 -1 8 -7 23 -13
34 -17 32 -77 227 -99 320 -4 17 -8 35 -10 40 -1 6 -5 24 -8 40 -3 17 -8 41
-10 55 -34 172 -48 483 -32 670 12 138 19 198 30 255 2 11 7 40 12 65 4 25 8
47 9 50 1 3 5 17 9 31 4 14 9 34 11 45 2 10 4 19 5 19 1 0 3 9 5 20 11 56 91
281 107 300 4 5 8 17 8 27 0 10 5 18 10 18 6 0 9 3 8 8 -2 6 28 70 81 171 29
55 176 268 234 341 89 108 264 285 353 355 42 33 81 65 87 70 70 63 371 232
472 266 22 7 45 16 50 20 8 6 126 44 170 55 109 28 230 50 335 60 36 3 66 8
68 9 5 5 404 -3 432 -8z"/>
<path d="M7182 8737 c-11 -5 -25 -20 -31 -33 -16 -36 -16 -4873 0 -4908 14
-29 68 -51 105 -42 13 4 35 17 47 29 l22 22 2 555 c1 305 3 614 3 685 l0 130
614 618 c338 339 616 617 619 617 8 0 187 -229 187 -239 0 -5 4 -11 8 -13 8
-3 144 -175 292 -368 30 -39 60 -77 65 -83 6 -7 42 -52 80 -102 38 -49 72 -92
75 -95 3 -3 17 -21 30 -40 13 -19 27 -37 30 -40 8 -7 242 -307 255 -328 11
-16 51 -66 73 -88 6 -7 12 -15 12 -18 0 -3 7 -14 15 -23 45 -56 209 -265 365
-469 41 -54 81 -103 88 -110 6 -7 12 -15 12 -18 0 -3 8 -14 18 -24 9 -10 26
-30 37 -46 11 -15 30 -39 42 -54 114 -143 283 -365 283 -372 0 -6 4 -10 9 -10
4 0 21 -18 36 -41 28 -39 71 -70 108 -76 10 -2 32 11 49 27 27 28 30 36 26 75
-3 26 -15 56 -29 73 -13 16 -35 43 -49 62 -14 18 -45 59 -70 90 -25 31 -54 69
-65 84 -11 16 -25 33 -30 40 -6 6 -68 85 -138 176 -70 91 -133 172 -140 180
-7 8 -35 44 -62 80 -28 36 -54 70 -60 77 -5 6 -20 24 -32 40 -12 15 -60 78
-107 138 -47 61 -89 115 -93 120 -5 6 -19 24 -33 42 -14 17 -36 46 -50 64 -14
18 -78 100 -143 183 -64 83 -127 164 -140 180 -12 16 -28 35 -34 42 -7 7 -13
17 -13 22 0 6 -3 12 -8 14 -4 2 -32 35 -62 73 -30 39 -57 72 -60 75 -3 3 -27
34 -55 70 -27 36 -53 70 -58 75 -40 51 -176 228 -192 249 -11 16 -25 33 -31
40 -5 6 -34 43 -64 81 -58 76 -119 153 -135 171 -5 7 -19 24 -30 40 -11 15
-29 39 -40 53 -11 14 -26 34 -33 43 -12 15 105 135 1007 1037 561 561 1027
1031 1036 1045 36 54 -12 126 -84 126 -35 0 -97 -60 -1681 -1645 -905 -905
-1647 -1645 -1650 -1645 -3 0 -5 723 -5 1606 0 1209 -3 1614 -12 1635 -20 47
-80 68 -131 46z"/>
</g>
</svg>
